<svg width="44" height="43" viewBox="0 0 44 43" fill="none" xmlns="http://www.w3.org/2000/svg">
<circle cx="22" cy="21.5" r="21.5" fill="#FEE800"/>
<path d="M22.0039 13.3779C18.043 13.3779 14.8334 16.5591 14.8334 20.4809C14.8334 23.3764 15.9654 24.7604 17.5172 26.0279V29.4254C17.5167 29.4617 17.5257 29.4974 17.5432 29.5285C17.5607 29.5596 17.586 29.5848 17.6162 29.6013C17.6464 29.6177 17.6803 29.6248 17.7141 29.6216C17.7479 29.6185 17.7802 29.6053 17.8073 29.5835L20.5273 27.4202L20.5869 27.4479C21.0519 27.5386 21.5235 27.5841 21.9962 27.5838C25.9571 27.5838 29.1667 24.4054 29.1667 20.4837C29.1667 16.5619 25.9622 13.3779 22.0039 13.3779Z" fill="#010202"/>
</svg>
